<svg xmlns="http://www.w3.org/2000/svg" viewBox="0 0 256 256"><rect width="128" height="120" x="64" y="100" fill="#f0f0f0" stroke="#333" stroke-width="4" rx="8"/><rect width="96" height="60" x="80" y="140" fill="#1a1a1a" opacity=".3" rx="4"/><rect width="16" height="64" x="76" y="40" fill="#666" rx="2"/><rect width="16" height="64" x="104" y="40" fill="#666" rx="2"/><rect width="16" height="64" x="132" y="40" fill="#666" rx="2"/><rect width="16" height="64" x="160" y="40" fill="#666" rx="2"/><rect width="24" height="40" x="40" y="120" fill="#f4a300" rx="6"/><rect width="12" height="28" x="46" y="126" fill="#333" rx="3"/><rect width="24" height="40" x="40" y="164" fill="#4a9eff" rx="6"/><rect width="12" height="28" x="46" y="170" fill="#333" rx="3"/><rect width="24" height="40" x="192" y="120" fill="#e83e3e" rx="6"/><rect width="12" height="28" x="198" y="126" fill="#333" rx="3"/><rect width="24" height="40" x="192" y="164" fill="#4caf50" rx="6"/><rect width="12" height="28" x="198" y="170" fill="#333" rx="3"/><rect width="20" height="12" x="164" y="116" fill="#4a9eff" rx="2"/></svg>